<mxfile host="app.diagrams.net" modified="2023-05-21T20:24:20.281Z" agent="Mozilla/5.0 (Macintosh; Intel Mac OS X 10_15_7) AppleWebKit/605.1.15 (KHTML, like Gecko) Version/16.3 Safari/605.1.15" etag="FUHk9aBb67tyDuCFXkBj" version="21.3.2" type="device">
  <diagram name="Seite-1" id="VG-hwnI3aBa3tFfHflap">
    <mxGraphModel dx="823" dy="429" grid="1" gridSize="10" guides="1" tooltips="1" connect="1" arrows="1" fold="1" page="1" pageScale="1" pageWidth="827" pageHeight="1169" math="0" shadow="0">
      <root>
        <mxCell id="0" />
        <mxCell id="1" parent="0" />
        <mxCell id="0PlB3zbr5TJ0uCk6zRgV-2" style="edgeStyle=orthogonalEdgeStyle;rounded=0;orthogonalLoop=1;jettySize=auto;html=1;exitX=0;exitY=0.5;exitDx=0;exitDy=0;entryX=0.5;entryY=1;entryDx=0;entryDy=0;" edge="1" parent="1" source="0PlB3zbr5TJ0uCk6zRgV-3" target="0PlB3zbr5TJ0uCk6zRgV-7">
          <mxGeometry relative="1" as="geometry">
            <mxPoint x="490" y="620" as="targetPoint" />
          </mxGeometry>
        </mxCell>
        <mxCell id="0PlB3zbr5TJ0uCk6zRgV-3" value="&lt;i&gt;Zähler &amp;lt; Grenze&lt;/i&gt;" style="rhombus;whiteSpace=wrap;html=1;" vertex="1" parent="1">
          <mxGeometry x="530" y="680" width="160" height="60" as="geometry" />
        </mxCell>
        <mxCell id="0PlB3zbr5TJ0uCk6zRgV-7" value="&lt;i style=&quot;border-color: var(--border-color);&quot;&gt;Zähler ← Zähler + Schrittweite&lt;/i&gt;" style="rounded=0;whiteSpace=wrap;html=1;" vertex="1" parent="1">
          <mxGeometry x="400" y="630" width="180" height="30" as="geometry" />
        </mxCell>
        <mxCell id="0PlB3zbr5TJ0uCk6zRgV-11" value="✅" style="text;html=1;strokeColor=none;fillColor=none;align=center;verticalAlign=middle;whiteSpace=wrap;rounded=0;" vertex="1" parent="1">
          <mxGeometry x="490" y="710" width="60" height="30" as="geometry" />
        </mxCell>
        <mxCell id="0PlB3zbr5TJ0uCk6zRgV-18" style="edgeStyle=orthogonalEdgeStyle;rounded=0;orthogonalLoop=1;jettySize=auto;html=1;entryX=0.5;entryY=1;entryDx=0;entryDy=0;exitX=0.5;exitY=0;exitDx=0;exitDy=0;" edge="1" parent="1" source="0PlB3zbr5TJ0uCk6zRgV-7" target="0PlB3zbr5TJ0uCk6zRgV-19">
          <mxGeometry relative="1" as="geometry">
            <mxPoint x="510" y="620" as="sourcePoint" />
          </mxGeometry>
        </mxCell>
        <mxCell id="0PlB3zbr5TJ0uCk6zRgV-44" style="edgeStyle=orthogonalEdgeStyle;rounded=0;orthogonalLoop=1;jettySize=auto;html=1;exitX=0.5;exitY=0;exitDx=0;exitDy=0;" edge="1" parent="1" source="0PlB3zbr5TJ0uCk6zRgV-19">
          <mxGeometry relative="1" as="geometry">
            <mxPoint x="610" y="550" as="targetPoint" />
            <Array as="points">
              <mxPoint x="490" y="550" />
            </Array>
          </mxGeometry>
        </mxCell>
        <mxCell id="0PlB3zbr5TJ0uCk6zRgV-19" value="&lt;i&gt;Schleifenkörper&lt;/i&gt;" style="rounded=0;whiteSpace=wrap;html=1;" vertex="1" parent="1">
          <mxGeometry x="400" y="570" width="180" height="30" as="geometry" />
        </mxCell>
        <mxCell id="0PlB3zbr5TJ0uCk6zRgV-34" value="Start" style="ellipse;whiteSpace=wrap;html=1;" vertex="1" parent="1">
          <mxGeometry x="570" y="420.67" width="80" height="40" as="geometry" />
        </mxCell>
        <mxCell id="0PlB3zbr5TJ0uCk6zRgV-35" style="edgeStyle=orthogonalEdgeStyle;rounded=0;orthogonalLoop=1;jettySize=auto;html=1;exitX=0.5;exitY=1;exitDx=0;exitDy=0;entryX=0.5;entryY=0;entryDx=0;entryDy=0;" edge="1" parent="1">
          <mxGeometry relative="1" as="geometry">
            <mxPoint x="609.4100000000001" y="460.67" as="sourcePoint" />
            <mxPoint x="609.4100000000001" y="490.67" as="targetPoint" />
          </mxGeometry>
        </mxCell>
        <mxCell id="0PlB3zbr5TJ0uCk6zRgV-36" style="edgeStyle=orthogonalEdgeStyle;rounded=0;orthogonalLoop=1;jettySize=auto;html=1;exitX=0.5;exitY=1;exitDx=0;exitDy=0;entryX=0.5;entryY=0;entryDx=0;entryDy=0;" edge="1" parent="1" target="0PlB3zbr5TJ0uCk6zRgV-3">
          <mxGeometry relative="1" as="geometry">
            <mxPoint x="609.66" y="519.9999999999999" as="sourcePoint" />
            <mxPoint x="609.66" y="549.9999999999999" as="targetPoint" />
          </mxGeometry>
        </mxCell>
        <mxCell id="0PlB3zbr5TJ0uCk6zRgV-37" value="&lt;i&gt;Zähler ← Startwert&lt;/i&gt;" style="rounded=0;whiteSpace=wrap;html=1;" vertex="1" parent="1">
          <mxGeometry x="520" y="490.67" width="180" height="30" as="geometry" />
        </mxCell>
        <mxCell id="0PlB3zbr5TJ0uCk6zRgV-38" value="" style="rounded=0;whiteSpace=wrap;html=1;fillColor=none;" vertex="1" parent="1">
          <mxGeometry x="75" y="900" width="830" height="510" as="geometry" />
        </mxCell>
        <mxCell id="0PlB3zbr5TJ0uCk6zRgV-47" style="edgeStyle=orthogonalEdgeStyle;rounded=0;orthogonalLoop=1;jettySize=auto;html=1;exitX=0.5;exitY=1;exitDx=0;exitDy=0;" edge="1" parent="1">
          <mxGeometry relative="1" as="geometry">
            <mxPoint x="610" y="740" as="sourcePoint" />
            <mxPoint x="610" y="780" as="targetPoint" />
          </mxGeometry>
        </mxCell>
        <mxCell id="0PlB3zbr5TJ0uCk6zRgV-48" value="Ende" style="ellipse;whiteSpace=wrap;html=1;" vertex="1" parent="1">
          <mxGeometry x="570" y="780" width="80" height="40" as="geometry" />
        </mxCell>
        <mxCell id="0PlB3zbr5TJ0uCk6zRgV-49" value="❌" style="text;html=1;strokeColor=none;fillColor=none;align=center;verticalAlign=middle;whiteSpace=wrap;rounded=0;" vertex="1" parent="1">
          <mxGeometry x="600" y="740" width="60" height="30" as="geometry" />
        </mxCell>
      </root>
    </mxGraphModel>
  </diagram>
</mxfile>
